<svg width="23" height="31" viewBox="0 0 23 31" fill="none" xmlns="http://www.w3.org/2000/svg">
<path d="M16.1521 24.0979C16.9041 24.0377 18.2828 24.2186 19.5361 23.6761C21.98 22.6514 22.6693 20.1199 22.356 18.1308C21.98 15.9007 19.9747 14.3335 19.6614 14.0924C19.4734 13.9718 19.1601 14.1527 19.2854 14.3938C19.4734 14.6951 20.0373 15.6595 19.8493 17.2267C19.5988 19.3966 17.8441 20.783 16.9668 21.4459C16.0894 22.109 15.4002 21.6268 15.0869 21.1446C14.8989 20.9034 14.7109 20.4212 14.9615 19.9993C15.1495 19.6376 15.5882 19.4569 16.0269 18.9747C17.5308 17.4075 18.0321 16.0815 18.1574 14.7554C18.2828 13.4294 18.1574 11.802 17.0294 10.1143C16.1521 8.78829 14.5855 7.64305 14.2095 7.34172C13.8335 6.98 13.6455 6.9801 13.7082 6.37734C13.7709 5.77458 13.8962 4.26772 13.5202 3.00195C13.1442 1.67591 12.3922 0.771814 12.3922 0.771814C12.3296 0.590986 12.079 0.651262 12.1416 0.892357C12.267 1.19373 12.3296 1.61561 12.267 2.21836C12.1416 3.54438 10.387 5.05124 9.13366 6.13619C7.88035 7.22115 6.50172 8.3061 5.74974 9.87324C5.18575 11.0787 4.93509 12.5856 5.37375 14.3938C5.87507 16.202 6.81505 16.8651 7.56703 18.1308C8.31901 19.3363 7.37903 20.3007 6.50172 20.5418C5.68708 20.7829 4.68444 19.276 4.18311 18.2513C3.55647 16.9856 3.61912 14.8759 3.61912 14.5746C3.61912 14.5143 3.61912 14.454 3.61912 14.3335C3.61912 14.213 3.43113 14.1527 3.36847 14.213C3.3058 14.2732 3.24313 14.3335 3.18047 14.454C2.61649 15.1773 1.23786 16.7445 0.736533 17.8294C0.235213 18.9144 -0.328773 20.4815 0.235213 22.4706C0.799198 24.3993 2.05249 25.4843 2.49115 25.8459C2.55382 25.9062 2.61649 25.9665 2.67915 26.0268C2.80449 26.1473 3.11781 26.087 3.18047 25.8459C3.24313 25.6651 3.24313 25.424 3.24313 25.3035C3.3058 24.5802 3.68179 24.1583 4.87243 23.5555C6.18839 22.8925 9.07099 21.9281 10.3243 21.8678C11.2643 21.8678 12.0163 22.6513 10.8256 24.3391C10.199 25.1829 8.13101 25.9063 7.6297 26.5692C7.12837 27.2926 7.6297 28.6789 9.38431 29.8241C11.139 31.0295 13.6455 30.9692 14.3975 30.9692C15.2122 30.909 15.1495 30.4268 15.1495 30.0049C15.1495 29.583 15.1495 28.6788 17.5308 27.7144C19.7241 26.8103 20.288 26.087 20.5387 25.7253C20.7893 25.3034 20.5387 25.0624 20.288 25.2431C20.0373 25.424 19.3481 25.8459 18.0321 26.0268C16.7161 26.2076 16.0269 25.8459 15.7762 25.3637C15.4002 25.0624 15.4002 24.1582 16.1521 24.0979ZM12.7682 18.5528C12.8309 19.1555 12.4549 19.5171 12.0163 19.6377C11.327 19.8185 10.1363 19.8788 9.94829 18.1308C9.69762 16.0814 9.76029 13.7308 10.763 11.8623C11.515 10.4157 12.4549 9.39105 12.5175 9.27048C12.6429 9.14991 12.8935 9.02934 13.0815 9.33076C13.3949 9.93343 12.8935 11.5609 12.7055 13.3691C12.4549 15.6595 12.6429 17.8294 12.7682 18.5528Z" fill="white"/>
</svg>
