<svg width="21" height="21" viewBox="0 0 21 21" fill="none" xmlns="http://www.w3.org/2000/svg">
<path d="M10.08 0C4.536 0 0 4.536 0 10.08C0 15.624 4.536 20.16 10.08 20.16C15.624 20.16 20.16 15.624 20.16 10.08C20.16 4.536 15.624 0 10.08 0ZM4.464 15.696C2.952 14.184 2.16 12.168 2.16 10.224L10.008 18C7.992 17.928 5.976 17.208 4.464 15.696ZM11.808 17.784L2.376 8.352C3.168 4.824 6.336 2.16 10.08 2.16C12.744 2.16 15.048 3.456 16.488 5.4L15.408 6.336C14.184 4.68 12.24 3.6 10.08 3.6C7.272 3.6 4.896 5.4 3.96 7.92L12.24 16.2C14.328 15.48 15.912 13.68 16.416 11.52H12.96V10.08H18C18 13.824 15.336 16.992 11.808 17.784Z" fill="#5C99A1" fill-opacity="0.4"/>
</svg>
